<?xml version="1.0" encoding="UTF-8"?>
<svg version="1.1" xmlns="http://www.w3.org/2000/svg" width="2152" height="572">
<path d="M0 0 C4.94383313 -0.0498757 9.88751599 -0.08594211 14.83154297 -0.10986328 C16.50930334 -0.11984803 18.18704664 -0.13344057 19.86474609 -0.15087891 C46.89658176 -0.42457825 46.89658176 -0.42457825 58.04296875 9.890625 C64.35448737 16.72698205 67.37312708 24.04246325 69.078125 33.09765625 C69.25021988 33.95627762 69.42231476 34.81489899 69.59962463 35.69953918 C69.9671897 37.53406637 70.3302429 39.36950248 70.68911743 41.20574951 C71.64506041 46.07466631 72.64853749 50.93372971 73.65234375 55.79296875 C73.85216354 56.76159851 74.05198334 57.73022827 74.25785828 58.72821045 C82.71895281 99.46375472 96.19400808 138.97688205 113 177 C137.17207544 125.88386956 152.87900933 69.04993512 164.54199219 13.85205078 C165 12 165 12 166 10 C204.74141299 9.11017956 204.74141299 9.11017956 218.28125 21.00390625 C228.22687388 31.37630131 230.64498061 44.76222394 233.81887817 58.28622437 C239.01903702 80.32314327 245.28870254 101.7211839 253 123 C253.35288086 123.98009033 253.35288086 123.98009033 253.71289062 124.97998047 C260.07658062 142.64759347 267.22046888 159.91050092 275 177 C299.9561714 121.17212027 316.78819439 61.40801791 326 1 C331.22859225 0.87540017 336.45630019 0.78519502 341.68603516 0.7253418 C343.46092809 0.70036373 345.23571993 0.66636874 347.01025391 0.62280273 C367.3912213 0.13535698 367.3912213 0.13535698 375.5871582 7.40844727 C381.19607063 13.50006487 382.68797624 19.77420437 382.46875 27.8125 C381.58794854 37.71662306 378.58336623 47.43820725 376 57 C375.69980957 58.11536133 375.39961914 59.23072266 375.09033203 60.37988281 C360.69253926 113.14911595 342.60439097 165.02130906 318.42041016 214.11230469 C317.22066479 216.55138826 316.03414448 218.99601169 314.85546875 221.4453125 C309.55555565 232.37023647 303.63818245 242.99519114 297.45678711 253.44458008 C295.980559 255.93964314 295.980559 255.93964314 294.90454102 258.4362793 C293.78935172 260.73264693 292.90372315 262.29345125 291 264 C287.07280197 265.10635111 283.36419172 264.98286364 279.3125 264.8125 C277.75499023 264.82120117 277.75499023 264.82120117 276.16601562 264.83007812 C266.46533587 264.64153827 258.7103468 261.31299618 251.56445312 254.74169922 C248.53492232 251.36893505 246.41374842 247.5254241 244.25 243.5625 C243.73904785 242.64509033 243.2280957 241.72768066 242.70166016 240.7824707 C220.50603488 200.38232873 203.95978343 155.72032233 193 111 C191.32780195 114.080508 190.32389631 117.08207314 189.40625 120.4609375 C189.10356201 121.55672119 188.80087402 122.65250488 188.48901367 123.78149414 C188.16263916 124.96735107 187.83626465 126.15320801 187.5 127.375 C180.51774467 152.17482309 172.16449828 176.31723498 162 200 C161.50709473 201.15193848 161.01418945 202.30387695 160.50634766 203.49072266 C154.61251083 217.19119186 148.53262691 230.7223727 141.19921875 243.71777344 C139.92044699 246.15139689 138.86941859 248.62688964 137.8125 251.1640625 C133.46952781 260.78143111 133.46952781 260.78143111 129 264 C119.32234777 266.96881433 107.61990723 266.02171139 98.53515625 261.66015625 C78.14258369 250.28678437 67.3034011 218.33556627 58 198 C57.45972168 196.81921875 56.91944336 195.6384375 56.36279297 194.421875 C32.16803924 141.28298991 14.4256615 85.38085906 3.875 27.9375 C3.73025238 27.15012451 3.58550476 26.36274902 3.43637085 25.55151367 C1.89419223 17.0651052 0.5600615 8.61820772 0 0 Z " fill="#251D1A" transform="translate(1228,202)"/>
<path d="M0 0 C4.22947987 -0.01874791 8.45893675 -0.0322489 12.68844604 -0.04119873 C14.1228172 -0.04493569 15.55718557 -0.05002708 16.99154663 -0.05657959 C42.77632731 -0.17129358 64.9453134 3.23319208 85 21 C85.58910156 21.50660156 86.17820312 22.01320312 86.78515625 22.53515625 C98.5422496 33.4028241 106.04780314 47.99521734 113.39794922 61.96533203 C115.61021355 66.15589065 117.86376169 70.32372899 120.1159668 74.49291992 C121.89103551 77.77969185 123.66110095 81.06911103 125.4296875 84.359375 C128.36945775 89.82789355 131.31181503 95.29501182 134.25585938 100.76123047 C135.41640369 102.91629497 136.57656146 105.07156768 137.73632812 107.22705078 C140.72050786 112.77256772 143.71069873 118.31471536 146.7109375 123.8515625 C155.65978328 140.38188842 164.04256967 156.94836358 172 174 C172.495 87.87 172.495 87.87 173 0 C210.25058548 0 210.25058548 0 220.82421875 9.66796875 C227.26248114 16.75492257 229.60296942 23.54593523 229.48101807 33.03540039 C229.48443577 34.0182048 229.48785347 35.00100922 229.49137473 36.01359558 C229.4979396 39.2919168 229.47599998 42.56941103 229.45410156 45.84765625 C229.45297279 48.20348593 229.45360753 50.55931701 229.45587158 52.91514587 C229.45701847 59.30095574 229.43351275 65.68646462 229.40557575 72.07220459 C229.38309388 78.07252469 229.37908121 84.07284531 229.37496826 90.07319951 C229.36622503 101.953967 229.33963594 113.83462432 229.30175781 125.71533203 C229.26501249 137.25276134 229.2367131 148.79016067 229.21972656 160.32763672 C229.21867567 161.03942687 229.21762477 161.75121703 229.21654204 162.48457658 C229.21132169 166.05560435 229.2062669 169.62663233 229.20129442 173.19766045 C229.15986268 202.79851332 229.08914238 232.39925141 229 262 C224.25355931 262.10020906 219.50775797 262.17208723 214.76049805 262.21972656 C213.15166474 262.23962238 211.54290158 262.26674929 209.93432617 262.30175781 C190.49843764 262.7136121 175.87889561 257.62533835 161.5949707 244.13183594 C148.46358554 231.189301 139.16877848 215.87434987 130 200 C129.5369043 199.20158691 129.07380859 198.40317383 128.59667969 197.58056641 C127.30663934 195.349736 126.02549005 193.11417651 124.75 190.875 C124.3669873 190.20605713 123.98397461 189.53711426 123.58935547 188.84790039 C121 184.23860509 121 184.23860509 121 182 C120.34 182 119.68 182 119 182 C111.64322539 168.77859659 104.29638822 155.55190774 96.99276733 142.30105591 C93.99706883 136.86632785 90.99909358 131.43285516 88 126 C87.67175232 125.40537964 87.34350464 124.81075928 87.00531006 124.19812012 C80.35275345 112.1502603 73.69384486 100.10669942 66.8125 88.1875 C66.37897217 87.4351709 65.94544434 86.6828418 65.4987793 85.90771484 C65.09312744 85.20984863 64.68747559 84.51198242 64.26953125 83.79296875 C63.92510986 83.2002417 63.58068848 82.60751465 63.22583008 81.99682617 C61.5598853 79.28307148 59.76633794 76.6495069 58 74 C57.67 136.04 57.34 198.08 57 262 C19.28032178 262 19.28032178 262 8.203125 251.4453125 C3.07378015 245.7521035 -0.12714817 239.54715559 -0.12304783 231.82210922 C-0.12503888 230.99206367 -0.12702993 230.16201812 -0.12908131 229.30681968 C-0.12616847 228.40020725 -0.12325563 227.49359481 -0.12025452 226.55950928 C-0.12110894 225.59237322 -0.12196337 224.62523716 -0.12284368 223.62879395 C-0.12449416 220.37978926 -0.11898413 217.1308359 -0.11352539 213.88183594 C-0.1132434 211.55615236 -0.11340149 209.23046869 -0.1139679 206.90478516 C-0.11425541 200.58290182 -0.10836612 194.26103737 -0.10139394 187.93915844 C-0.09578477 182.00419892 -0.09477133 176.06924014 -0.09374207 170.13427833 C-0.09155342 158.37890334 -0.08489842 146.62353529 -0.07543945 134.86816406 C-0.06626049 123.44889358 -0.05918202 112.02962499 -0.05493164 100.61035156 C-0.05466892 99.9064715 -0.05440619 99.20259144 -0.05413551 98.47738168 C-0.05283047 94.94622341 -0.05156676 91.41506513 -0.05032361 87.88390684 C-0.03995684 58.58926675 -0.02226928 29.29463345 0 0 Z " fill="#261D1A" transform="translate(1896,202)"/>
<path d="M0 0 C1.16297607 0.03456299 2.32595215 0.06912598 3.52416992 0.10473633 C6.83432422 0.22393984 10.13259054 0.40612129 13.4375 0.625 C14.60829102 0.69968506 14.60829102 0.69968506 15.80273438 0.77587891 C32.24685197 2.01200626 44.64846373 8.74024865 55.37915039 20.97509766 C59.02997397 25.67513789 61.60390514 30.87659512 64.25 36.1875 C64.85893461 37.39158024 65.46831838 38.59543342 66.078125 39.79907227 C67.89073407 43.39514157 69.66743309 47.00779653 71.4375 50.625 C72.17105713 52.11725098 72.17105713 52.11725098 72.91943359 53.63964844 C102.97267579 115.3700549 123.30998612 183.72311364 135.22265625 251.1875 C135.40939911 252.23174637 135.40939911 252.23174637 135.59991455 253.29708862 C136.15064859 256.48711731 136.4375 259.37051937 136.4375 262.625 C131.51202109 262.72488492 126.58714904 262.79694055 121.66088867 262.84472656 C119.98988558 262.864675 118.31895076 262.89184401 116.64819336 262.92675781 C102.82900098 263.20802243 91.47786575 261.81788519 80.4375 252.625 C72.00004622 244.4195762 71.6731125 229.84518796 69.875 218.875 C69.45993257 216.35889467 69.04204124 213.84325327 68.62109375 211.328125 C68.44118896 210.23145508 68.26128418 209.13478516 68.07592773 208.00488281 C67.35318515 204.17863106 66.38191265 200.4026506 65.4375 196.625 C29.4675 196.295 -6.5025 195.965 -43.5625 195.625 C-46.89308971 210.59741078 -46.89308971 210.59741078 -50.10546875 225.59375 C-50.54351372 227.66799115 -50.98166757 229.74220932 -51.41992188 231.81640625 C-52.09258532 235.00479626 -52.76436284 238.19336568 -53.43432617 241.38232422 C-54.09310189 244.51581961 -54.75526378 247.64858362 -55.41796875 250.78125 C-55.61899704 251.74252808 -55.82002533 252.70380615 -56.02714539 253.69421387 C-56.21436661 254.5769397 -56.40158783 255.45966553 -56.59448242 256.36914062 C-56.75784592 257.14535767 -56.92120941 257.92157471 -57.08952332 258.72131348 C-57.5625 260.625 -57.5625 260.625 -58.5625 262.625 C-63.07901109 262.74983978 -67.59457334 262.8399125 -72.11230469 262.8996582 C-73.6447095 262.92459759 -75.17699792 262.95856266 -76.70898438 263.00219727 C-85.88055007 263.25663039 -93.79886821 263.22965012 -101.5625 257.625 C-106.5775964 252.73528101 -107.81396354 247.05370313 -107.99414062 240.26000977 C-108.02601977 226.94382424 -105.69149492 214.53664367 -102.5625 201.625 C-102.31032715 200.57393066 -102.0581543 199.52286133 -101.79833984 198.43994141 C-93.18909105 163.3990697 -80.71717253 128.78820606 -66.5625 95.625 C-65.84465332 93.93552246 -65.84465332 93.93552246 -65.11230469 92.21191406 C-52.78739701 63.39350086 -39.65940495 32.98061861 -19.5625 8.625 C-19.10834717 7.93809082 -18.65419434 7.25118164 -18.1862793 6.54345703 C-13.09867555 -0.47440919 -8.27937121 -0.4388736 0 0 Z M10.4375 51.625 C-5.20592016 79.36179985 -17.31305376 108.09939025 -27.125 138.375 C-27.47199951 139.44105469 -27.81899902 140.50710938 -28.17651367 141.60546875 C-28.49080322 142.59675781 -28.80509277 143.58804688 -29.12890625 144.609375 C-29.40677979 145.48303711 -29.68465332 146.35669922 -29.97094727 147.25683594 C-30.7240649 149.86497149 -30.7240649 149.86497149 -30.5625 153.625 C-3.1725 153.625 24.2175 153.625 52.4375 153.625 C51.71385581 148.55949064 50.93744518 144.57729439 49.390625 139.8125 C49.18351898 139.17437881 48.97641296 138.53625763 48.76303101 137.87879944 C48.08023728 135.79108131 47.38570946 133.70761075 46.6875 131.625 C46.32552521 130.5412056 46.32552521 130.5412056 45.95623779 129.43551636 C32.56941398 88.21456606 32.56941398 88.21456606 10.4375 51.625 Z " fill="#251D1A" transform="translate(1085.5625,201.375)"/>
<path d="M0 0 C1.16297607 0.03456299 2.32595215 0.06912598 3.52416992 0.10473633 C6.83432422 0.22393984 10.13259054 0.40612129 13.4375 0.625 C14.60829102 0.69968506 14.60829102 0.69968506 15.80273438 0.77587891 C32.24685197 2.01200626 44.64846373 8.74024865 55.37915039 20.97509766 C59.02997397 25.67513789 61.60390514 30.87659512 64.25 36.1875 C64.85893461 37.39158024 65.46831838 38.59543342 66.078125 39.79907227 C67.89073407 43.39514157 69.66743309 47.00779653 71.4375 50.625 C72.17105713 52.11725098 72.17105713 52.11725098 72.91943359 53.63964844 C102.97267579 115.3700549 123.30998612 183.72311364 135.22265625 251.1875 C135.40939911 252.23174637 135.40939911 252.23174637 135.59991455 253.29708862 C136.15064859 256.48711731 136.4375 259.37051937 136.4375 262.625 C131.51202109 262.72488492 126.58714904 262.79694055 121.66088867 262.84472656 C119.98988558 262.864675 118.31895076 262.89184401 116.64819336 262.92675781 C102.82900098 263.20802243 91.47786575 261.81788519 80.4375 252.625 C72.00004622 244.4195762 71.6731125 229.84518796 69.875 218.875 C69.45993257 216.35889467 69.04204124 213.84325327 68.62109375 211.328125 C68.44118896 210.23145508 68.26128418 209.13478516 68.07592773 208.00488281 C67.35318515 204.17863106 66.38191265 200.4026506 65.4375 196.625 C29.4675 196.295 -6.5025 195.965 -43.5625 195.625 C-46.89308971 210.59741078 -46.89308971 210.59741078 -50.10546875 225.59375 C-50.54351372 227.66799115 -50.98166757 229.74220932 -51.41992188 231.81640625 C-52.09258532 235.00479626 -52.76436284 238.19336568 -53.43432617 241.38232422 C-54.09310189 244.51581961 -54.75526378 247.64858362 -55.41796875 250.78125 C-55.61899704 251.74252808 -55.82002533 252.70380615 -56.02714539 253.69421387 C-56.21436661 254.5769397 -56.40158783 255.45966553 -56.59448242 256.36914062 C-56.75784592 257.14535767 -56.92120941 257.92157471 -57.08952332 258.72131348 C-57.5625 260.625 -57.5625 260.625 -58.5625 262.625 C-63.07901109 262.74983978 -67.59457334 262.8399125 -72.11230469 262.8996582 C-73.6447095 262.92459759 -75.17699792 262.95856266 -76.70898438 263.00219727 C-85.88055007 263.25663039 -93.79886821 263.22965012 -101.5625 257.625 C-106.5775964 252.73528101 -107.81396354 247.05370313 -107.99414062 240.26000977 C-108.02601977 226.94382424 -105.69149492 214.53664367 -102.5625 201.625 C-102.31032715 200.57393066 -102.0581543 199.52286133 -101.79833984 198.43994141 C-93.18909105 163.3990697 -80.71717253 128.78820606 -66.5625 95.625 C-65.84465332 93.93552246 -65.84465332 93.93552246 -65.11230469 92.21191406 C-52.78739701 63.39350086 -39.65940495 32.98061861 -19.5625 8.625 C-19.10834717 7.93809082 -18.65419434 7.25118164 -18.1862793 6.54345703 C-13.09867555 -0.47440919 -8.27937121 -0.4388736 0 0 Z M10.4375 51.625 C-5.20592016 79.36179985 -17.31305376 108.09939025 -27.125 138.375 C-27.47199951 139.44105469 -27.81899902 140.50710938 -28.17651367 141.60546875 C-28.49080322 142.59675781 -28.80509277 143.58804688 -29.12890625 144.609375 C-29.40677979 145.48303711 -29.68465332 146.35669922 -29.97094727 147.25683594 C-30.7240649 149.86497149 -30.7240649 149.86497149 -30.5625 153.625 C-3.1725 153.625 24.2175 153.625 52.4375 153.625 C51.71385581 148.55949064 50.93744518 144.57729439 49.390625 139.8125 C49.18351898 139.17437881 48.97641296 138.53625763 48.76303101 137.87879944 C48.08023728 135.79108131 47.38570946 133.70761075 46.6875 131.625 C46.32552521 130.5412056 46.32552521 130.5412056 45.95623779 129.43551636 C32.56941398 88.21456606 32.56941398 88.21456606 10.4375 51.625 Z " fill="#E26A44" transform="translate(597.5625,201.375)"/>
<path d="M0 0 C1.16297607 0.03456299 2.32595215 0.06912598 3.52416992 0.10473633 C6.83432422 0.22393984 10.13259054 0.40612129 13.4375 0.625 C14.60829102 0.69968506 14.60829102 0.69968506 15.80273438 0.77587891 C32.24685197 2.01200626 44.64846373 8.74024865 55.37915039 20.97509766 C59.02997397 25.67513789 61.60390514 30.87659512 64.25 36.1875 C64.85893461 37.39158024 65.46831838 38.59543342 66.078125 39.79907227 C67.89073407 43.39514157 69.66743309 47.00779653 71.4375 50.625 C72.17105713 52.11725098 72.17105713 52.11725098 72.91943359 53.63964844 C102.97267579 115.3700549 123.30998612 183.72311364 135.22265625 251.1875 C135.40939911 252.23174637 135.40939911 252.23174637 135.59991455 253.29708862 C136.15064859 256.48711731 136.4375 259.37051937 136.4375 262.625 C131.65443814 262.72492737 126.87200243 262.79695954 122.08813477 262.84472656 C120.46563107 262.86466813 118.84319758 262.89183174 117.22094727 262.92675781 C103.59481989 263.21247371 92.29091837 261.72240721 81.4375 252.625 C72.44840341 243.85227116 71.88520725 230.16990688 69.875 218.375 C69.45970583 215.95266494 69.04180541 213.53077503 68.62109375 211.109375 C68.44118896 210.05459961 68.26128418 208.99982422 68.07592773 207.91308594 C67.33941146 204.11981589 66.37468458 200.37373832 65.4375 196.625 C29.4675 196.295 -6.5025 195.965 -43.5625 195.625 C-46.89308971 210.59741078 -46.89308971 210.59741078 -50.10546875 225.59375 C-50.54351372 227.66799115 -50.98166757 229.74220932 -51.41992188 231.81640625 C-52.09258532 235.00479626 -52.76436284 238.19336568 -53.43432617 241.38232422 C-54.09310189 244.51581961 -54.75526378 247.64858362 -55.41796875 250.78125 C-55.61899704 251.74252808 -55.82002533 252.70380615 -56.02714539 253.69421387 C-56.21436661 254.5769397 -56.40158783 255.45966553 -56.59448242 256.36914062 C-56.75784592 257.14535767 -56.92120941 257.92157471 -57.08952332 258.72131348 C-57.5625 260.625 -57.5625 260.625 -58.5625 262.625 C-62.93659304 262.74989723 -67.3097039 262.83993781 -71.68505859 262.8996582 C-73.16896679 262.92458838 -74.65275495 262.95854625 -76.13623047 263.00219727 C-85.93290023 263.28295146 -94.46092444 263.0156062 -102.19677734 256.18115234 C-108.42476225 249.36978093 -108.13291736 240.85073126 -107.93359375 232.19140625 C-107.41364678 221.80171863 -104.9938384 211.70681126 -102.5625 201.625 C-102.18424072 200.0462207 -102.18424072 200.0462207 -101.79833984 198.43554688 C-93.18821016 163.3964344 -80.71657582 128.78680804 -66.5625 95.625 C-65.84465332 93.93552246 -65.84465332 93.93552246 -65.11230469 92.21191406 C-52.78739701 63.39350086 -39.65940495 32.98061861 -19.5625 8.625 C-19.10834717 7.93809082 -18.65419434 7.25118164 -18.1862793 6.54345703 C-13.09867555 -0.47440919 -8.27937121 -0.4388736 0 0 Z M10.4375 51.625 C-5.20592016 79.36179985 -17.31305376 108.09939025 -27.125 138.375 C-27.47199951 139.44105469 -27.81899902 140.50710938 -28.17651367 141.60546875 C-28.49080322 142.59675781 -28.80509277 143.58804688 -29.12890625 144.609375 C-29.40677979 145.48303711 -29.68465332 146.35669922 -29.97094727 147.25683594 C-30.7240649 149.86497149 -30.7240649 149.86497149 -30.5625 153.625 C-3.1725 153.625 24.2175 153.625 52.4375 153.625 C51.71385581 148.55949064 50.93744518 144.57729439 49.390625 139.8125 C49.18351898 139.17437881 48.97641296 138.53625763 48.76303101 137.87879944 C48.08023728 135.79108131 47.38570946 133.70761075 46.6875 131.625 C46.32552521 130.5412056 46.32552521 130.5412056 45.95623779 129.43551636 C32.56941398 88.21456606 32.56941398 88.21456606 10.4375 51.625 Z " fill="#251C19" transform="translate(1729.5625,201.375)"/>
<path d="M0 0 C1.6701416 0.05184448 1.6701416 0.05184448 3.37402344 0.10473633 C6.58829648 0.22500301 9.79089151 0.40886141 13 0.625 C13.79728516 0.67479004 14.59457031 0.72458008 15.41601562 0.77587891 C32.33248599 1.98363621 44.86784043 8.34902842 55.94165039 20.97509766 C59.59247397 25.67513789 62.16640514 30.87659512 64.8125 36.1875 C65.42143461 37.39158024 66.03081838 38.59543342 66.640625 39.79907227 C68.45323407 43.39514157 70.22993309 47.00779653 72 50.625 C72.73355713 52.11725098 72.73355713 52.11725098 73.48193359 53.63964844 C102.06841622 112.35727966 122.16177728 177.53035946 134.125 241.625 C134.36024887 242.87243988 134.36024887 242.87243988 134.60025024 244.14508057 C135.03852598 246.49075452 135.46351319 248.83836783 135.8828125 251.1875 C136.07729729 252.23174637 136.07729729 252.23174637 136.27571106 253.29708862 C136.85907087 256.67380852 137.2088295 259.36830767 136 262.625 C131.21693814 262.72492737 126.43450243 262.79695954 121.65063477 262.84472656 C120.02813107 262.86466813 118.40569758 262.89183174 116.78344727 262.92675781 C103.12866517 263.21307455 91.89913103 261.7002845 81 252.625 C72.56254622 244.4195762 72.2356125 229.84518796 70.4375 218.875 C70.02243257 216.35889467 69.60454124 213.84325327 69.18359375 211.328125 C69.00368896 210.23145508 68.82378418 209.13478516 68.63842773 208.00488281 C67.91568515 204.17863106 66.94441265 200.4026506 66 196.625 C29.7 196.295 -6.6 195.965 -44 195.625 C-47.33058971 210.59741078 -47.33058971 210.59741078 -50.54296875 225.59375 C-50.98101372 227.66799115 -51.41916757 229.74220932 -51.85742188 231.81640625 C-52.53008532 235.00479626 -53.20186284 238.19336568 -53.87182617 241.38232422 C-54.53060189 244.51581961 -55.19276378 247.64858362 -55.85546875 250.78125 C-56.05649704 251.74252808 -56.25752533 252.70380615 -56.46464539 253.69421387 C-56.65186661 254.5769397 -56.83908783 255.45966553 -57.03198242 256.36914062 C-57.19534592 257.14535767 -57.35870941 257.92157471 -57.52702332 258.72131348 C-58 260.625 -58 260.625 -59 262.625 C-63.37409304 262.74989723 -67.7472039 262.83993781 -72.12255859 262.8996582 C-73.60646679 262.92458838 -75.09025495 262.95854625 -76.57373047 263.00219727 C-85.6287452 263.26169701 -93.32200124 263.1150837 -101 257.625 C-106.0150964 252.73528101 -107.25146354 247.05370313 -107.43164062 240.26000977 C-107.46351977 226.94382424 -105.12899492 214.53664367 -102 201.625 C-101.74782715 200.57393066 -101.4956543 199.52286133 -101.23583984 198.43994141 C-92.62659105 163.3990697 -80.15467253 128.78820606 -66 95.625 C-65.28215332 93.93552246 -65.28215332 93.93552246 -64.54980469 92.21191406 C-52.22489701 63.39350086 -39.09690495 32.98061861 -19 8.625 C-18.53932129 7.93809082 -18.07864258 7.25118164 -17.60400391 6.54345703 C-12.60062084 -0.29253415 -8.13374935 -0.45180722 0 0 Z M10 51.625 C-5.64342016 79.36179985 -17.75055376 108.09939025 -27.5625 138.375 C-27.90949951 139.44105469 -28.25649902 140.50710938 -28.61401367 141.60546875 C-28.92830322 142.59675781 -29.24259277 143.58804688 -29.56640625 144.609375 C-29.84427979 145.48303711 -30.12215332 146.35669922 -30.40844727 147.25683594 C-31.1615649 149.86497149 -31.1615649 149.86497149 -31 153.625 C-3.28 153.625 24.44 153.625 53 153.625 C52.27635581 148.55949064 51.49994518 144.57729439 49.953125 139.8125 C49.74601898 139.17437881 49.53891296 138.53625763 49.32553101 137.87879944 C48.64273728 135.79108131 47.94820946 133.70761075 47.25 131.625 C46.88802521 130.5412056 46.88802521 130.5412056 46.51873779 129.43551636 C37.73977106 103.29173765 27.39125907 74.6680609 12 51.625 C11.34 51.625 10.68 51.625 10 51.625 Z " fill="#E26A44" transform="translate(116,201.375)"/>
<path d="M0 0 C8.92521523 8.79043849 12.43558609 19.3798089 12.62109375 31.7109375 C12.60142281 34.30094516 12.5660464 36.89087722 12.515625 39.48046875 C12.50053404 40.82745881 12.48685352 42.17446543 12.47460938 43.52148438 C12.43958146 46.77908027 12.39046162 50.03580048 12.328125 53.29296875 C7.79637719 52.54090755 5.58061872 51.1702019 2.015625 48.23046875 C-22.21890674 29.29902278 -53.860844 26.15646882 -83.546875 29.54296875 C-94.74692936 31.03519156 -106.4130054 34.16365005 -114.671875 42.29296875 C-119.80341027 49.23844207 -121.66050478 56.72484399 -120.671875 65.29296875 C-118.41275836 73.20707165 -112.97097469 76.81833266 -106.140625 80.75 C-90.77344355 88.57817442 -73.12157494 91.8705958 -56.359375 95.29296875 C-30.28140994 100.6805946 -5.46552117 109.68173811 10.8671875 131.91015625 C17.61073336 142.90898773 19.72153211 154.11323052 19.703125 166.79296875 C19.70151367 167.94482666 19.69990234 169.09668457 19.69824219 170.28344727 C19.56555592 179.56042852 18.2941242 187.50825584 15.328125 196.29296875 C14.895 197.77216797 14.895 197.77216797 14.453125 199.28125 C8.54987303 217.91338905 -6.31915859 231.20126107 -23.0625 240.09375 C-55.80250618 256.68260931 -99.65885363 257.912536 -134.484375 247.04296875 C-148.57076686 241.99597274 -160.67096574 235.22434331 -168.3828125 222.078125 C-169.02089844 220.69947266 -169.02089844 220.69947266 -169.671875 219.29296875 C-169.94330322 218.73085693 -170.21473145 218.16874512 -170.49438477 217.58959961 C-173.75206032 209.67782801 -172.99754446 201.12057047 -172.859375 192.73046875 C-172.84430139 191.13347616 -172.83061772 189.53646981 -172.81835938 187.93945312 C-172.78556425 184.05694751 -172.73393074 180.17511242 -172.671875 176.29296875 C-168.14012719 177.04502995 -165.92436872 178.4157356 -162.359375 181.35546875 C-138.11061972 200.43268854 -106.15053796 205.76965372 -76.10400391 203.06152344 C-64.90630679 201.70871734 -51.50221538 198.62985703 -44.16015625 189.390625 C-39.32571664 181.02270794 -37.23379802 171.04819175 -39.75 161.56640625 C-42.82918462 153.97282383 -48.59130103 150.16398766 -55.89916992 146.86645508 C-70.81821957 140.68839107 -86.99635218 137.62358778 -102.71777344 134.1736145 C-127.62322558 128.70067155 -153.96653199 121.11136453 -169.671875 99.29296875 C-179.40036395 82.57992363 -181.70180848 64.15196079 -177.171875 45.23046875 C-173.36424527 33.27129368 -167.06625061 22.59797682 -158.671875 13.29296875 C-158.06988281 12.60976562 -157.46789062 11.9265625 -156.84765625 11.22265625 C-140.38977114 -6.37382469 -115.23875222 -16.00924399 -91.671875 -18.70703125 C-90.6303125 -18.82949219 -89.58875 -18.95195312 -88.515625 -19.078125 C-59.3185404 -21.74137258 -23.48084434 -19.67812898 0 0 Z " fill="#E26B44" transform="translate(932.671875,216.70703125)"/>
<path d="M0 0 C1.89322402 0.00056497 3.78644848 0.00024587 5.67967224 -0.00088501 C10.79046703 -0.00145616 15.90116692 0.01025948 21.01193976 0.02426291 C26.36373389 0.03681008 31.71553047 0.0379439 37.06733704 0.04031372 C47.18887502 0.0465168 57.31036952 0.06291171 67.4318884 0.0830127 C78.96033402 0.10540825 90.48878177 0.11637431 102.01724374 0.12640357 C125.72026012 0.14727901 149.42323797 0.18243212 173.1262207 0.22705078 C173.18827469 3.76994047 173.22581027 7.31268893 173.2590332 10.85595703 C173.27683838 11.85550415 173.29464355 12.85505127 173.31298828 13.8848877 C173.36373435 21.09829253 172.65869015 26.39615507 168.1262207 32.22705078 C167.69180664 32.86255859 167.25739258 33.49806641 166.80981445 34.15283203 C161.65294357 41.01396793 153.53713948 45.6969268 145.1262207 47.22705078 C140.74050666 47.49665436 136.36641719 47.45981533 131.97387695 47.42236328 C130.71860703 47.41953339 129.4633371 47.41670349 128.17002869 47.41378784 C124.85407724 47.40452206 121.53840769 47.38659377 118.22253418 47.36437988 C114.83042825 47.34381673 111.43829305 47.33476388 108.04614258 47.32470703 C101.40609153 47.30270202 94.76617237 47.26926573 88.1262207 47.22705078 C88.12760339 48.88001616 88.12760339 48.88001616 88.12901402 50.56637478 C88.1511803 77.33812925 88.16763062 104.10988255 88.17803288 130.88164425 C88.18319659 143.8280819 88.19024073 156.7745135 88.20166016 169.72094727 C88.21160468 181.00060151 88.21807358 192.28025137 88.2203092 203.55990988 C88.2216167 209.53640984 88.22470503 215.51289727 88.23195076 221.48939323 C88.23870733 227.10761159 88.24083841 232.72581217 88.23932838 238.34403419 C88.23960488 240.41252616 88.24161214 242.48101868 88.24542618 244.54950714 C88.25035776 247.36053661 88.24922098 250.17149784 88.24647522 252.98252869 C88.25084448 254.22715383 88.25084448 254.22715383 88.25530201 255.49692291 C88.24034191 261.11292957 88.24034191 261.11292957 87.1262207 262.22705078 C82.62593094 262.52104143 78.11950093 262.54146873 73.61083984 262.57714844 C72.09896265 262.59353822 70.58715726 262.62059729 69.07568359 262.65917969 C58.30564301 262.93244051 48.24885015 262.53741422 39.66210938 255.08984375 C30.99016328 246.356542 29.61995673 236.71367343 29.62854004 224.86174011 C29.64269209 223.09402162 29.65723126 221.3263062 29.67211914 219.55859375 C29.67324885 217.67536951 29.67261136 215.79214351 29.67034912 213.90892029 C29.66920585 208.82067558 29.6926524 203.73281137 29.72064495 198.64465475 C29.74572327 193.31822759 29.74800567 187.99179081 29.75274658 182.66531372 C29.76515748 172.58972032 29.79795357 162.51430143 29.83814454 152.43878472 C29.88292097 140.9635842 29.90486406 129.48837516 29.92492628 118.01310897 C29.9666879 94.41763734 30.04001673 70.82240479 30.1262207 47.22705078 C3.3962207 47.22705078 -23.3337793 47.22705078 -50.8737793 47.22705078 C-50.8737793 18.58715716 -50.8737793 18.58715716 -41.9128418 9.01611328 C-30.29643298 -1.1760615 -14.46730526 -0.06072591 0 0 Z " fill="#E26B43" transform="translate(307.873779296875,201.77294921875)"/>
<path d="M0 0 C4.75875883 3.85339748 8.68434918 8.233693 12.484375 13.01171875 C12.97953613 13.62837402 13.47469727 14.2450293 13.98486328 14.88037109 C17.19594897 18.89047342 20.35558488 22.93715367 23.484375 27.01171875 C25.94353919 25.55186156 28.38118338 24.07933919 30.7734375 22.51171875 C42.50165973 14.98055264 54.46530812 13.3436228 68.21484375 15.6328125 C88.2876669 20.39191177 104.62813478 32.14070912 119.484375 46.01171875 C120.87550036 47.22546929 122.27108825 48.43413128 123.671875 49.63671875 C137.05162524 61.32384998 147.88139835 75.57614975 158.796875 89.51171875 C161.85312043 93.35459275 165.15971381 96.79653733 168.68359375 100.2109375 C170.484375 102.01171875 170.484375 102.01171875 172.984375 105.07421875 C176.17117407 108.81870765 179.73009473 111.85087713 183.484375 115.01171875 C184.37253906 115.78773437 185.26070312 116.56375 186.17578125 117.36328125 C198.19268656 127.70005999 214.65478345 141.21383243 231.484375 140.01171875 C233.9222504 139.39251398 236.20412098 138.63626471 238.5390625 137.703125 C240.484375 137.01171875 240.484375 137.01171875 243.484375 137.01171875 C240.77457402 143.66304843 234.7451084 147.9263933 228.484375 151.01171875 C213.16549624 156.20728253 198.34943413 150.9784323 184.45874023 144.26245117 C168.22446848 136.05226752 154.17811173 124.31435727 140.80078125 112.109375 C138.80912683 110.30580262 136.78415643 108.56065779 134.734375 106.82421875 C126.93378257 100.024517 119.36235698 92.58714844 112.734375 84.63671875 C101.94943651 72.05875079 85.96417151 63.09595391 69.546875 61.19921875 C63.60716066 60.80885093 58.25444462 61.68086541 52.484375 63.01171875 C50.81851292 63.34905005 49.15206637 63.6835505 47.484375 64.01171875 C67.59380243 93.96192982 91.2553899 123.42586121 120.73046875 144.625 C122.484375 146.01171875 122.484375 146.01171875 124.359375 147.94921875 C140.45441189 163.5708722 165.97876159 170.49334183 187.484375 173.01171875 C187.484375 173.34171875 187.484375 173.67171875 187.484375 174.01171875 C140.85803833 175.62364076 95.30051958 154.41242443 61.484375 123.01171875 C53.79842006 115.68517897 46.28630542 108.17403525 39.484375 100.01171875 C35.47073038 95.22514488 31.39937863 90.87571229 26.62109375 86.84375 C25.15411658 85.58595788 23.72021376 84.28886352 22.31640625 82.9609375 C6.56340526 68.10509234 -15.46272692 53.2854081 -37.765625 52.57421875 C-51.96611181 53.15805839 -61.90480705 60.41283248 -72.38671875 69.375 C-75.47643409 72.00576044 -78.66278447 74.49100394 -81.890625 76.94921875 C-86.43755712 80.4169524 -90.96026828 83.91161018 -95.453125 87.44921875 C-96.03433105 87.90675537 -96.61553711 88.36429199 -97.21435547 88.83569336 C-98.39288131 89.76381911 -99.57126649 90.69212351 -100.74951172 91.62060547 C-103.66933548 93.92046112 -106.59264393 96.2158782 -109.515625 98.51171875 C-110.68230861 99.42836385 -111.84897527 100.34503052 -113.015625 101.26171875 C-176.015625 150.76171875 -176.015625 150.76171875 -177.76782227 152.13842773 C-178.92718733 153.049369 -180.08653001 153.96033876 -181.24584961 154.87133789 C-184.27404185 157.2508449 -187.3026939 159.62976344 -190.33203125 162.0078125 C-190.95916016 162.50023437 -191.58628906 162.99265625 -192.23242188 163.5 C-193.42498499 164.43638289 -194.61768382 165.37259298 -195.81054688 166.30859375 C-198.33375863 168.29004829 -200.81667823 170.27551935 -203.23046875 172.390625 C-203.98457031 172.92558594 -204.73867188 173.46054688 -205.515625 174.01171875 C-206.505625 173.68171875 -207.495625 173.35171875 -208.515625 173.01171875 C-203.14357574 166.77327703 -197.5609436 160.77121779 -191.85742188 154.8359375 C-188.29829981 151.08452851 -185.3472259 147.3567615 -182.515625 143.01171875 C-181.12146358 141.5119 -179.68357569 140.05143007 -178.203125 138.63671875 C-175.4675795 135.96314353 -172.81637769 133.29178534 -170.328125 130.38671875 C-166.9136451 126.40976073 -163.34898012 122.58578269 -159.765625 118.76171875 C-153.63670166 112.21896351 -147.5621491 105.63069484 -141.515625 99.01171875 C-139.70396755 97.03177962 -137.89126185 95.05280313 -136.078125 93.07421875 C-135.62671143 92.58155518 -135.17529785 92.0888916 -134.71020508 91.58129883 C-130.81590803 87.33379007 -126.90701202 83.09985817 -122.99633789 78.86743164 C-119.66109698 75.25645306 -116.33504015 71.63724711 -113.015625 68.01171875 C-108.68826084 63.2852893 -104.3449757 58.5738181 -99.99609375 53.8671875 C-96.66095309 50.25627293 -93.33496249 46.63716229 -90.015625 43.01171875 C-85.69044754 38.28767766 -81.35730631 33.5710413 -76.99829102 28.87817383 C-74.52970153 26.21640774 -72.08813144 23.53833996 -69.69921875 20.8046875 C-53.69318432 2.59835498 -24.014082 -14.88734274 0 0 Z " fill="#E26B43" transform="translate(1087.515625,3.98828125)"/>
<path d="M0 0 C5.89796177 4.3036058 11.2902941 9.08157913 16.625 14.0625 C18.01612536 15.27625054 19.41171325 16.48491253 20.8125 17.6875 C34.19225024 29.37463123 45.02202335 43.626931 55.9375 57.5625 C58.99374543 61.405374 62.30033881 64.84731858 65.82421875 68.26171875 C67.625 70.0625 67.625 70.0625 70.125 73.125 C73.31179907 76.8694889 76.87071973 79.90165838 80.625 83.0625 C81.51316406 83.83851562 82.40132812 84.61453125 83.31640625 85.4140625 C95.33331156 95.75084124 111.79540845 109.26461368 128.625 108.0625 C131.0628754 107.44329523 133.34474598 106.68704596 135.6796875 105.75390625 C137.625 105.0625 137.625 105.0625 140.625 105.0625 C137.91519902 111.71382968 131.8857334 115.97717455 125.625 119.0625 C110.30612124 124.25806378 95.49005913 119.02921355 81.59936523 112.31323242 C65.36509348 104.10304877 51.31873673 92.36513852 37.94140625 80.16015625 C35.94975183 78.35658387 33.92478143 76.61143904 31.875 74.875 C24.07440757 68.07529825 16.50298198 60.63792969 9.875 52.6875 C-0.90993849 40.10953204 -16.89520349 31.14673516 -33.3125 29.25 C-41.76535825 28.70675718 -49.31654176 30.71335535 -57.375 33.0625 C-58.39131993 31.43638811 -59.40761851 29.81026287 -60.42382812 28.18408203 C-61.31540487 26.75775621 -62.20733782 25.33165299 -63.09960938 23.90576172 C-65.4731772 20.11154863 -67.84064321 16.31378739 -70.1953125 12.5078125 C-70.64471191 11.78335938 -71.09411133 11.05890625 -71.55712891 10.3125 C-72.42356718 8.91541242 -73.28788917 7.51700974 -74.14990234 6.1171875 C-75.74984246 3.54157838 -77.22305959 1.21444041 -79.375 -0.9375 C-79.22845356 -3.79808649 -78.55536742 -4.77134335 -76.44140625 -6.71875 C-51.04859227 -24.14907473 -23.66772182 -16.78044395 0 0 Z " fill="#251C19" transform="translate(1190.375,35.9375)"/>
</svg>
